# 3ds Max Wavefront OBJ Exporter v0.97b - (c)2007 guruware
# File Created: 17.12.2014 15:29:59

mtllib skybox1.obj.mtl

#
# object Box001
#

v  -50.0000 -50.0000 -50.0000
v  50.0000 -50.0000 -50.0000
v  -50.0000 50.0000 -50.0000
v  50.0000 50.0000 -50.0000
v  -50.0000 -50.0000 50.0000
v  50.0000 -50.0000 50.0000
v  -50.0000 50.0000 50.0000
v  50.0000 50.0000 50.0000
# 8 vertices

vn 0.0000 0.0000 1.0000
vn 0.0000 0.0000 1.0000
vn 0.0000 0.0000 1.0000
vn 0.0000 0.0000 1.0000
vn 0.0000 0.0000 1.0000
vn 0.0000 0.0000 1.0000
vn 0.0000 0.0000 -1.0000
vn 0.0000 0.0000 -1.0000
vn 0.0000 0.0000 -1.0000
vn 0.0000 0.0000 -1.0000
vn 0.0000 0.0000 -1.0000
vn 0.0000 0.0000 -1.0000
vn 0.0000 1.0000 0.0000
vn 0.0000 1.0000 0.0000
vn 0.0000 1.0000 0.0000
vn 0.0000 1.0000 0.0000
vn 0.0000 1.0000 0.0000
vn 0.0000 1.0000 0.0000
vn -1.0000 0.0000 0.0000
vn -1.0000 0.0000 0.0000
vn -1.0000 0.0000 0.0000
vn -1.0000 0.0000 0.0000
vn -1.0000 0.0000 0.0000
vn -1.0000 0.0000 0.0000
vn 0.0000 -1.0000 0.0000
vn 0.0000 -1.0000 0.0000
vn 0.0000 -1.0000 0.0000
vn 0.0000 -1.0000 0.0000
vn 0.0000 -1.0000 0.0000
vn 0.0000 -1.0000 0.0000
vn 1.0000 0.0000 0.0000
vn 1.0000 0.0000 0.0000
vn 1.0000 0.0000 0.0000
vn 1.0000 0.0000 0.0000
vn 1.0000 0.0000 0.0000
vn 1.0000 0.0000 0.0000
# 36 vertex normals

vt 0.0000 0.0000 0.0000
vt 1.0000 0.0000 0.0000
vt 0.0000 1.0000 0.0000
vt 1.0000 1.0000 0.0000
vt 0.0000 0.0000 0.0000
vt 1.0000 0.0000 0.0000
vt 0.0000 1.0000 0.0000
vt 1.0000 1.0000 0.0000
vt 0.0000 0.0000 0.0000
vt 1.0000 0.0000 0.0000
vt 0.0000 1.0000 0.0000
vt 1.0000 1.0000 0.0000
# 12 texture coords

g Box001
usemtl Material__26
f 3/12/1 1/10/2 4/11/3 
f 2/9/4 4/11/5 1/10/6 
f 6/10/7 5/9/8 8/12/9 
f 7/11/10 8/12/11 5/9/12 
f 2/6/13 1/5/14 6/8/15 
f 5/7/16 6/8/17 1/5/18 
f 4/2/19 2/1/20 8/4/21 
f 6/3/22 8/4/23 2/1/24 
f 3/6/25 4/5/26 7/8/27 
f 8/7/28 7/8/29 4/5/30 
f 1/2/31 3/1/32 5/4/33 
f 7/3/34 5/4/35 3/1/36 
# 12 faces

